<?xml version="1.0" encoding="utf-8"?>
<!-- Generator: Adobe Illustrator 17.0.0, SVG Export Plug-In . SVG Version: 6.00 Build 0)  -->
<!DOCTYPE svg PUBLIC "-//W3C//DTD SVG 1.1//EN" "http://www.w3.org/Graphics/SVG/1.1/DTD/svg11.dtd">
<svg version="1.1" id="Layer_1" xmlns="http://www.w3.org/2000/svg" xmlns:xlink="http://www.w3.org/1999/xlink" x="0px" y="0px"
	 width="21.6px" height="21.6px" viewBox="-0.8 -0.8 21.6 21.6" enable-background="new -0.8 -0.8 21.6 21.6" xml:space="preserve">
<path id="prefix__Icon_ionic-ios-information-circle-2" fill="#FFFFFF" d="M9.999,0c-5.523,0-10,4.477-10,10s4.477,10,10,10
	s10-4.477,10-10S15.522,0,9.999,0z M10.912,14.616H9.076V7.688h1.837L10.912,14.616z M9.994,6.933
	c-0.529-0.02-0.943-0.464-0.923-0.994c0,0,0,0,0,0c0.02-0.529,0.464-0.943,0.994-0.923c0,0,0,0,0,0
	c0.515,0.019,0.923,0.441,0.924,0.956c-0.001,0.532-0.432,0.963-0.964,0.963L9.994,6.933z"/>
</svg>
