<?xml version="1.0" encoding="utf-8"?>
<!-- Generator: Adobe Illustrator 24.3.0, SVG Export Plug-In . SVG Version: 6.00 Build 0)  -->
<svg version="1.1" id="Layer_1" xmlns="http://www.w3.org/2000/svg" xmlns:xlink="http://www.w3.org/1999/xlink" x="0px" y="0px"
	 viewBox="0 0 512 512" style="enable-background:new 0 0 512 512;" xml:space="preserve">
<g>
	<path d="M508.4,234.1c0.1-0.1,0.1-0.1,0.2-0.2c0.3-0.3,0.5-0.7,0.7-1c0.1-0.2,0.3-0.4,0.4-0.7c0.1-0.2,0.3-0.4,0.4-0.7
		c0.2-0.3,0.3-0.6,0.4-0.9c0.1-0.2,0.2-0.3,0.2-0.5c0.2-0.4,0.3-0.7,0.4-1.1c0-0.1,0.1-0.2,0.1-0.3c0.1-0.5,0.3-1,0.4-1.5
		c0,0,0,0,0,0c1.1-5.1-0.4-10.6-4.3-14.6l-80-80c-6.3-6.3-16.4-6.3-22.6,0c-6.3,6.3-6.3,16.4,0,22.6l52.7,52.7H293.3
		c-8.8,0-16,7.2-16,16c0,8.8,7.2,16,16,16h164l-52.7,52.7c-6.3,6.3-6.3,16.4,0,22.6c3.1,3.1,7.2,4.7,11.3,4.7s8.2-1.6,11.3-4.7
		l79.9-79.9C507.6,235,508,234.6,508.4,234.1z"/>
	<path d="M325.3,277.3c-8.8,0-16,7.2-16,16v96c0,14.7-12,26.7-26.7,26.7h-69.3V85.3c0-18.2-11.6-34.5-29.1-40.6L146,32h136.7
		c14.7,0,26.7,12,26.7,26.7v96c0,8.8,7.2,16,16,16s16-7.2,16-16v-96C341.3,26.3,315,0,282.7,0h-240C19.1,0,0,19.2,0,42.7v384
		c0,18.2,11.6,34.5,29.1,40.6L157.4,510c4.3,1.3,8.7,2,13.2,2c23.5,0,42.7-19.1,42.7-42.7V448h69.3c32.4,0,58.7-26.3,58.7-58.7v-96
		C341.3,284.5,334.2,277.3,325.3,277.3z M181.3,469.3c0,5.9-4.8,10.7-10.7,10.7c-1.4,0-2.6-0.2-3.5-0.5L39.4,437
		c-4.4-1.5-7.4-5.7-7.4-10.3v-384C32,36.8,36.8,32,42.7,32c1.4,0,2.6,0.2,3.5,0.5l127.8,42.6c4.4,1.5,7.4,5.7,7.4,10.3L181.3,469.3
		L181.3,469.3z"/>
</g>
</svg>
