<?xml version="1.0" encoding="utf-8"?>
<!-- Generator: Adobe Illustrator 17.0.0, SVG Export Plug-In . SVG Version: 6.00 Build 0)  -->
<!DOCTYPE svg PUBLIC "-//W3C//DTD SVG 1.1//EN" "http://www.w3.org/Graphics/SVG/1.1/DTD/svg11.dtd">
<svg version="1.1" id="Layer_1" xmlns="http://www.w3.org/2000/svg" xmlns:xlink="http://www.w3.org/1999/xlink" x="0px" y="0px"
	 width="21.6px" height="21.6px" viewBox="-0.8 -2.136 21.6 21.6" enable-background="new -0.8 -2.136 21.6 21.6"
	 xml:space="preserve">
<path id="prefix__Path_353" fill="#FFFFFF" d="M19.743,14.457L11.637,0.922C11.089,0.018,9.912-0.27,9.008,0.278
	c-0.263,0.16-0.484,0.381-0.644,0.644L0.258,14.454c-0.529,0.916-0.216,2.087,0.7,2.616c0.287,0.166,0.611,0.255,0.942,0.258h16.203
	c1.057-0.008,1.908-0.871,1.9-1.928c0-0.002,0-0.005,0-0.007C19.998,15.064,19.909,14.741,19.743,14.457L19.743,14.457z
	 M10.764,14.257c-0.098,0.1-0.216,0.179-0.346,0.231c-0.132,0.057-0.274,0.086-0.418,0.086c-0.142,0.001-0.282-0.029-0.411-0.086
	c-0.133-0.05-0.254-0.129-0.353-0.231c-0.203-0.202-0.317-0.477-0.317-0.763c0-0.073,0.008-0.145,0.022-0.216
	c0.015-0.069,0.037-0.136,0.065-0.2c0.024-0.064,0.056-0.124,0.094-0.18c0.04-0.06,0.086-0.115,0.137-0.166
	c0.052-0.049,0.108-0.095,0.166-0.136c0.06-0.038,0.122-0.071,0.187-0.1c0.064-0.027,0.131-0.046,0.2-0.058
	c0.353-0.07,0.717,0.041,0.972,0.295c0.051,0.051,0.097,0.106,0.137,0.166c0.038,0.058,0.071,0.118,0.1,0.18
	c0.022,0.065,0.043,0.137,0.058,0.2c0.014,0.071,0.022,0.143,0.022,0.216c0.003,0.288-0.11,0.565-0.315,0.767V14.257z M11.082,9.665
	c0.003,0.596-0.479,1.082-1.075,1.085c-0.001,0-0.003,0-0.004,0c-0.596,0.001-1.08-0.483-1.081-1.079c0-0.001,0-0.001,0-0.002V5.841
	c0-0.596,0.484-1.08,1.08-1.08c0,0,0.001,0,0.001,0c0.597,0,1.081,0.484,1.081,1.081L11.082,9.665z"/>
</svg>
